<?xml version="1.0" encoding="UTF-8"?>
<svg id="Layer_1" data-name="Layer 1" xmlns="http://www.w3.org/2000/svg" version="1.1" viewBox="0 0 322.5 112.2">
  <defs>
    <style>
      .cls-1 {
        fill: red;
      }

      .cls-1, .cls-2 {
        stroke-width: 0px;
      }

      .cls-2 {
        fill: #fff;
      }
    </style>
  </defs>
  <path class="cls-2" d="M40.7,78.4v-14.3h39.1v14.3h13.7v-9.4c0-3.2-1.2-6.1-3.4-8.3l-6.9-6.9c-2.2-2.2-5.2-3.4-8.3-3.4h-29.4c-3.2,0-6,1.2-8.2,3.4l-6.9,6.9c-2.2,2.2-3.5,5.2-3.5,8.3v9.4s13.7,0,13.7,0ZM27,112.2h13.7v-20.1h39.1v20.1h13.7v-15.2c0-3.2-1.2-6.1-3.4-8.3l-10.3-10.2h-39.1l-10.2,10.2c-2.2,2.2-3.5,5.2-3.5,8.3,0,0,0,15.2,0,15.2ZM149.8,112.2v-48.1h19v48.1h13.7v-43.2c0-3.2-1.2-6.1-3.4-8.3l-6.9-6.9c-2.2-2.2-5.2-3.4-8.4-3.4h-14.1l-13.7,13.7v48.1h13.7ZM136,50.4h-14.2c-3.2,0-6,1.2-8.2,3.4l-6.9,6.9c-2.2,2.2-3.5,5.2-3.5,8.3v43.2h13.7v-48.1h19v-13.7h0ZM216.4,108.7c2.2,2.2,5.1,3.5,8.2,3.5h21.6v-13.7h-40.1l10.4,10.2h0ZM206,98.4v-48.1h-13.7v29.5c0,3.2,1.3,6,3.5,8.2l10.2,10.3h0ZM269.7,64.1h39.1v22.2c0,6.7-5.5,12.2-12.1,12.2h-26.9v-34.3h0ZM298.5,53.8c-2.2-2.2-5.2-3.4-8.3-3.4h-34.2v61.8h40.7c14.3,0,25.9-11.6,25.9-25.9v-4.2c0-2.8-1.2-5.5-3.4-7.7,0,0-20.6-20.6-20.6-20.6Z"/>
  <path class="cls-1" d="M0,41.4h21.4v5.5H0v-5.5ZM0,12.1h6.4v-6.6h15V0H0v12.1ZM0,29.6h21.4v-5.5H6.4v-6.6H0v12ZM6.4,17.5h13.7v-5.5H6.4v5.5ZM43.6,10.4c.3-.5.5-1.1.5-1.7,0-.6-.2-1.2-.5-1.7-.3-.4-.8-.8-1.2-1-.6-.2-1.2-.4-1.8-.5-.7,0-1.4-.1-2.2-.1h-5v6.6h5c.7,0,1.4,0,2.2-.1.6,0,1.2-.2,1.8-.5.5-.2.9-.6,1.3-1M48.1,2.7c.8.8,1.4,1.8,1.8,2.8.7,2.1.7,4.4,0,6.5-.4,1.1-1,2-1.8,2.8-.9.9-2,1.5-3.2,2-1.5.5-3.1.8-4.7.8h-6.8v12h-6.4V0h13.2c1.6,0,3.2.2,4.7.8,1.2.4,2.3,1.1,3.2,2M86.7,24.1V0h-6.4v29.6h21.4v-5.5h-15ZM54.3,12.1h6.4v-6.6h15V0h-21.4v12.1ZM54.3,29.6h6.4v-12h-6.4v12ZM60.7,17.5h13.7v-5.5h-13.7v5.5Z"/>
</svg>