<?xml version="1.0" encoding="UTF-8"?>
<svg id="Layer_1" data-name="Layer 1" xmlns="http://www.w3.org/2000/svg" viewBox="0 0 322.49 112.17">
  <defs>
    <style>
      .cls-1 {
        fill: #fff;
        stroke-width: 0px;
      }
    </style>
  </defs>
  <path class="cls-1" d="M0,41.4h21.39v5.47H0v-5.47ZM0,12.05h6.38v-6.58h15.01V0H0v12.05ZM0,29.57h21.39v-5.47H6.38v-6.58H0v12.05ZM6.38,17.52h13.73v-5.47H6.38v5.47ZM43.6,10.45c.34-.5.51-1.1.48-1.71.02-.6-.15-1.18-.48-1.67-.32-.44-.76-.78-1.25-1-.58-.25-1.2-.42-1.83-.48-.71-.08-1.43-.12-2.15-.12h-5.05v6.58h5.04c.72,0,1.44-.04,2.15-.12.63-.07,1.24-.23,1.82-.47.5-.22.93-.57,1.26-1M48.06,2.72c.8.79,1.4,1.75,1.78,2.81.74,2.1.74,4.39,0,6.48-.38,1.05-.99,2-1.78,2.79-.91.87-2,1.54-3.19,1.97-1.51.53-3.11.79-4.72.75h-6.83v12.05h-6.38V0h13.21c1.61-.04,3.22.21,4.74.75,1.18.43,2.26,1.1,3.17,1.97M86.73,24.1V0h-6.38v29.57h21.39v-5.47h-15.01ZM54.35,12.05h6.38v-6.58h15.01V0h-21.39v12.05ZM54.35,29.57h6.38v-12.05h-6.38v12.05ZM60.73,17.52h13.73v-5.47h-13.73v5.47ZM40.69,78.37v-14.26h39.08v14.26h13.73v-9.4c0-3.17-1.16-6.13-3.38-8.34l-6.86-6.87c-2.22-2.22-5.18-3.38-8.34-3.38h-29.36c-3.17,0-6.02,1.16-8.24,3.38l-6.87,6.87c-2.22,2.22-3.49,5.17-3.49,8.34v9.4h13.73ZM26.96,112.17h13.73v-20.07h39.08v20.07h13.73v-15.21c0-3.17-1.16-6.13-3.38-8.34l-10.35-10.25h-39.08l-10.24,10.25c-2.22,2.22-3.49,5.17-3.49,8.34v15.21ZM149.76,112.17v-48.06h19.01v48.06h13.73v-43.2c0-3.17-1.16-6.13-3.38-8.34l-6.86-6.87c-2.22-2.22-5.18-3.38-8.35-3.38h-14.15l-13.73,13.73v48.06h13.73ZM136.03,50.38h-14.15c-3.17,0-6.02,1.16-8.24,3.38l-6.87,6.87c-2.22,2.22-3.49,5.17-3.49,8.34v43.2h13.73v-48.06h19.01v-13.73ZM216.36,108.68c2.22,2.22,5.07,3.49,8.24,3.49h21.56v-13.73h-40.15l10.35,10.24ZM206.01,98.44v-48.06h-13.73v29.47c0,3.17,1.27,6.02,3.49,8.24l10.24,10.35ZM269.68,64.11h39.08v22.18c0,6.66-5.49,12.15-12.15,12.15h-26.93v-34.33ZM298.51,53.76c-2.22-2.22-5.18-3.38-8.34-3.38h-34.22v61.79h40.66c14.26,0,25.88-11.62,25.88-25.88v-4.22c0-2.75-1.16-5.49-3.38-7.71l-20.6-20.6Z"/>
</svg>